<svg id="Layer_1" data-name="Layer 1" xmlns="http://www.w3.org/2000/svg" viewBox="0 0 1535 214"><defs><style>.cls-1{fill:#fff;}</style></defs><path class="cls-1" d="M22.87,103.54,141,37v15.7L38.3,109.4l102.68,59v15.43L22.87,115.78Z"/><path class="cls-1" d="M205.83,34.51h11.5V112c11.93-11.5,54.53-51.54,81.15-77.53h15.34L246.94,98l70.71,85.62H303.38l-64.75-78.17-21.3,18.75v59.42h-11.5Z"/><path class="cls-1" d="M411.37,110.34h-76V173h83.28l-1.7,10.65H323.83V34.51H415.2V45.16H335.33V99.69h76Z"/><path class="cls-1" d="M476.12,183.61,420.74,34.51h12.35l29,78c8.31,22.58,17.68,47.5,20.88,60.07h.42c3.2-11.08,13.42-37.28,21.73-59.22l30-78.81h12.14l-57.51,149.1Z"/><path class="cls-1" d="M569,34.51v149.1h-11.5V34.51Z"/><path class="cls-1" d="M584.11,183.61V34.51h17c23.22,35.79,77.75,119.07,87.12,135.26h.21c-1.27-21.52-1.06-43.45-1.06-67.74V34.51h11.71v149.1H683.36C661.21,149.11,605.83,62.42,595.18,46H595c1.06,19.59.85,41.32.85,68.37v69.22Z"/><path class="cls-1" d="M752.37,34.51h49.42c40.89,0,69.22,28.55,69.22,73.28,0,44.51-27.69,75.82-69.43,75.82H752.37ZM763.88,173h36c39.41,0,58.79-27.69,58.79-64.54,0-32.8-17.47-63.26-58.79-63.26h-36Z"/><path class="cls-1" d="M1013.93,108c0,40.68-21.72,77.74-67.73,77.74-42,0-66.45-33.86-66.45-76.68,0-42.17,23.64-76.68,67.94-76.68C988.59,32.38,1013.93,64.55,1013.93,108Zm-121.83.42c0,34.3,19,66.67,54.74,66.67,38.55,0,54.74-31.52,54.74-66.88,0-34.72-18.32-65.18-54.31-65.18C908.93,43,892.1,74.77,892.1,108.42Z"/><path class="cls-1" d="M1056.32,183.61v-56a7.21,7.21,0,0,0-.85-3.4l-53.25-89.68h13.42c14.91,25.35,40.9,69.44,47.28,80.52,6.39-11.08,32.59-54.74,48.57-80.52h12.78L1068.68,125a6.45,6.45,0,0,0-.64,3.19v55.38Z"/><path class="cls-1" d="M1135.34,34.51h11.51V173h80.08l-2.13,10.65h-89.46Z"/><path class="cls-1" d="M1327.89,110.34h-76V173h83.29l-1.71,10.65h-93.08V34.51h91.38V45.16h-79.88V99.69h76Z"/><path class="cls-1" d="M1509.51,117.38l-118.11,66.5v-15.7l102.68-56.66-102.68-59V37l118.11,68.1Z"/></svg>